<svg id="Layer_1" data-name="Layer 1" xmlns="http://www.w3.org/2000/svg" viewBox="0 0 614.87 341.93"><defs><style>.cls-1{fill:#58595b;}.cls-2{fill:#4db9ea;}</style></defs><title>Artboard 1</title><path class="cls-1" d="M88.84,272.13a56.53,56.53,0,0,1-3.23,19.59,43.39,43.39,0,0,1-9.09,15,40.1,40.1,0,0,1-14.06,9.61,46.84,46.84,0,0,1-18.08,3.39,46.59,46.59,0,0,1-18-3.39,40.15,40.15,0,0,1-14-9.61,43.35,43.35,0,0,1-9.09-15,60.88,60.88,0,0,1,0-39.12,43.37,43.37,0,0,1,9.09-15,40.56,40.56,0,0,1,14-9.65,46.22,46.22,0,0,1,18-3.42,46.87,46.87,0,0,1,18.08,3.39,39.94,39.94,0,0,1,14.06,9.65,43.76,43.76,0,0,1,9.09,15A56.33,56.33,0,0,1,88.84,272.13Zm-7,0a53.19,53.19,0,0,0-2.7-17.52,37.47,37.47,0,0,0-7.64-13.17,32.93,32.93,0,0,0-11.85-8.26,39.54,39.54,0,0,0-15.28-2.87,39.36,39.36,0,0,0-15.21,2.87,33.25,33.25,0,0,0-11.89,8.26,37.55,37.55,0,0,0-7.7,13.17,57.63,57.63,0,0,0,0,35.07,37.57,37.57,0,0,0,7.7,13.14A32.9,32.9,0,0,0,29.17,311a39.77,39.77,0,0,0,15.21,2.83A40,40,0,0,0,59.66,311a32.58,32.58,0,0,0,11.85-8.23,37.49,37.49,0,0,0,7.64-13.14A53.1,53.1,0,0,0,81.86,272.13Z"/><path class="cls-1" d="M111.89,265a34.72,34.72,0,0,1,10.17-9.42,25,25,0,0,1,13.07-3.49q12.05,0,18.8,8.36t6.75,25.09a46.17,46.17,0,0,1-1.88,13.4,31.8,31.8,0,0,1-5.53,10.8,26.25,26.25,0,0,1-9,7.21,27.09,27.09,0,0,1-12.22,2.63,25.48,25.48,0,0,1-11.52-2.44,23.8,23.8,0,0,1-8.43-7.18v31.94h-6.32V253.23h3.49a1.75,1.75,0,0,1,1.91,1.65Zm.26,39.45a27.78,27.78,0,0,0,4,4.77,20.19,20.19,0,0,0,4.38,3.16,18.1,18.1,0,0,0,4.91,1.75,27.59,27.59,0,0,0,5.5.53,23,23,0,0,0,10.14-2.11,20,20,0,0,0,7.28-6,26.83,26.83,0,0,0,4.41-9.22,44.32,44.32,0,0,0,1.48-11.82q0-14.62-5.4-21.5t-15.48-6.88a21.47,21.47,0,0,0-11.79,3.36,33.43,33.43,0,0,0-9.42,9.35Z"/><path class="cls-1" d="M180.7,283.39v1.25a44.45,44.45,0,0,0,1.71,13,26.57,26.57,0,0,0,4.87,9.38,20.08,20.08,0,0,0,7.64,5.7,25.28,25.28,0,0,0,10,1.91,30,30,0,0,0,8.56-1.09,31.93,31.93,0,0,0,6.09-2.44,33.35,33.35,0,0,0,3.92-2.44,4.44,4.44,0,0,1,2.11-1.09,1.51,1.51,0,0,1,1.32.66l1.71,2.11a17.9,17.9,0,0,1-4.18,3.69,29.76,29.76,0,0,1-5.8,2.93,42.16,42.16,0,0,1-6.85,1.94,37.69,37.69,0,0,1-7.34.72,31.16,31.16,0,0,1-12.25-2.34,26,26,0,0,1-9.48-6.82,31,31,0,0,1-6.09-11,47.31,47.31,0,0,1-2.14-14.85,40.46,40.46,0,0,1,2-13,29.75,29.75,0,0,1,5.79-10.27,26.44,26.44,0,0,1,9.29-6.75,30.53,30.53,0,0,1,12.48-2.44,27.24,27.24,0,0,1,10.27,1.91,23.28,23.28,0,0,1,8.23,5.56,26.18,26.18,0,0,1,5.5,9,34.61,34.61,0,0,1,2,12.25,3.5,3.5,0,0,1-.4,2,1.54,1.54,0,0,1-1.32.53Zm43.73-4a28.18,28.18,0,0,0-1.48-9.45,20.08,20.08,0,0,0-4.18-7.08,18.26,18.26,0,0,0-6.42-4.44,21.15,21.15,0,0,0-8.2-1.55,24.65,24.65,0,0,0-9.09,1.58,19.85,19.85,0,0,0-6.95,4.54,22.71,22.71,0,0,0-4.71,7.11,33.13,33.13,0,0,0-2.37,9.29Z"/><path class="cls-1" d="M253.14,264.69a37.14,37.14,0,0,1,10.5-9.09,26.17,26.17,0,0,1,13.27-3.42,24.62,24.62,0,0,1,9.51,1.71,17.48,17.48,0,0,1,6.82,4.94,21.9,21.9,0,0,1,4.08,7.77,35.29,35.29,0,0,1,1.38,10.27v41.88h-6.32V276.87q0-9.22-4.22-14.46t-12.84-5.23a23.25,23.25,0,0,0-12,3.26,33.78,33.78,0,0,0-9.91,9.05v49.26h-6.32V253.23h3.49a1.75,1.75,0,0,1,1.91,1.65Z"/><path class="cls-1" d="M318.53,318.75V225.24h18.17v77.57h47.68v15.94Z"/><path class="cls-1" d="M472.36,318.75v-61.9l-24.1,46.1h-9.88l-24.1-46.1v61.9H396.11V225.24H415.6l27.66,53.21,27.92-53.21h19.36v93.51Z"/><path class="cls-1" d="M510,318.75V225.37h18.17v93.38Z"/><path class="cls-1" d="M603.54,249.74a22.53,22.53,0,0,0-3.36-2.5,41.05,41.05,0,0,0-5.93-3.1,51.26,51.26,0,0,0-7.57-2.57,33.11,33.11,0,0,0-8.3-1.05q-7.5,0-11.2,2.77a9.15,9.15,0,0,0-3.69,7.77,8,8,0,0,0,1.38,4.81,11.93,11.93,0,0,0,4,3.36,33.76,33.76,0,0,0,6.65,2.63q4,1.19,9.29,2.5,6.85,1.85,12.45,4a33.76,33.76,0,0,1,9.48,5.27,21.78,21.78,0,0,1,6,7.57A25.17,25.17,0,0,1,614.87,292,27.08,27.08,0,0,1,612,304.86a24,24,0,0,1-7.57,8.63,32.43,32.43,0,0,1-11.06,4.81,56.45,56.45,0,0,1-13.17,1.51,70.4,70.4,0,0,1-20.81-3.16,64.23,64.23,0,0,1-18.44-9L549,292a25.24,25.24,0,0,0,4.28,3.1,64.76,64.76,0,0,0,7.31,3.82,56.47,56.47,0,0,0,9.35,3.23,42.21,42.21,0,0,0,10.54,1.32q15,0,15-9.61a8.1,8.1,0,0,0-1.71-5.27,14.57,14.57,0,0,0-4.87-3.69,46.82,46.82,0,0,0-7.64-2.9q-4.48-1.32-10-2.77a85,85,0,0,1-11.66-4,31.68,31.68,0,0,1-8.23-5.07,18.47,18.47,0,0,1-4.94-6.85A24.16,24.16,0,0,1,544.8,254a29.05,29.05,0,0,1,2.63-12.64,25.55,25.55,0,0,1,7.31-9.22,33.14,33.14,0,0,1,10.87-5.6,45,45,0,0,1,13.3-1.91,51.61,51.61,0,0,1,18.17,3.1A67.7,67.7,0,0,1,611.58,235Z"/><path class="cls-2" d="M255.22,86.33a6.43,6.43,0,0,1-.6-.9c-5.7,2.77-10.77,5.45-15.07,8a83.17,83.17,0,0,0-10,6.7c0,.42,0,.82,0,1.21,6.89,14.37,19.31,29.61,35,43l.24-.07c-4.08-16-6.24-35.18-6.25-55.62A6.38,6.38,0,0,1,255.22,86.33Z"/><path class="cls-2" d="M265.71,73.72c.13.14.25.3.37.46A504.29,504.29,0,0,1,320.3,53.6,6.15,6.15,0,0,1,322.17,50c.12-.12.24-.23.38-.33-2.56-7.07-5-13.54-7.35-19.26a203.24,203.24,0,0,0-43.2-2.3,7.06,7.06,0,0,1-1.09,1.22,7.79,7.79,0,0,1-2,1.35,206,206,0,0,0-6.1,41.15A6.39,6.39,0,0,1,265.71,73.72Z"/><polygon class="cls-2" points="326.94 49.12 326.95 49.12 326.95 49.11 326.94 49.12"/><path class="cls-2" d="M265.62,86l0,.06a7.64,7.64,0,0,1-3.27,2.4c0,20.79,2.12,40.21,6.17,56.26a10.13,10.13,0,0,1,2.83,1.79c1.87,1.65,2.86,3.64,2.67,5.29a166.91,166.91,0,0,0,19,12.23,160.89,160.89,0,0,0,24.89-11.84,252,252,0,0,0,23.87-15.63,7.6,7.6,0,0,1,.83-5.43A655.53,655.53,0,0,1,265.62,86Z"/><path class="cls-2" d="M346.08,127.29c-5-20.68-11.68-43.43-19.38-65.9a7.53,7.53,0,0,1-4.22-1.93c-.17-.16-.33-.32-.48-.49a571.79,571.79,0,0,0-54.2,20.41,10.45,10.45,0,0,1-.34,2.89,730.26,730.26,0,0,0,77.79,45.62C345.51,127.68,345.79,127.48,346.08,127.29Z"/><path class="cls-2" d="M384.61,147.74a118.73,118.73,0,0,1-12.16-3.45c-4.8-1.71-10.45-4-16.81-6.94a10.21,10.21,0,0,1-.82.9,10.33,10.33,0,0,1-1,.85A180.12,180.12,0,0,1,357,160.93a42.92,42.92,0,0,1-.12,9.05A89.93,89.93,0,0,0,384.61,147.74Z"/><path class="cls-2" d="M304.79,0c.63.75,1.27,1.59,1.92,2.56,3.63,5.34,7.76,13.47,12.63,24.85a235.85,235.85,0,0,1,45.51,12.15,3.26,3.26,0,0,1,.34-.44A3.63,3.63,0,0,1,367.93,38,7.41,7.41,0,0,1,373,40.5l.16.18a102.34,102.34,0,0,1,16.57-1.19c.28,0,.72.11.88.11-17-25.11-44.51-40.23-75.2-40.23A99,99,0,0,0,304.79,0Z"/><path class="cls-2" d="M389.09,91.49c7-9.23,11.53-17.55,13-24.07a6.78,6.78,0,0,1-.5-1.94,48.84,48.84,0,0,0-9.68-8.55,109.65,109.65,0,0,0-16.67-9.34,3.65,3.65,0,0,1-.58,1.14c-1.66,2.12-5.38,1.6-8-1.12-.19-.2-.37-.41-.54-.62-9.39,1.93-20.1,4.68-31.86,8.17a6.16,6.16,0,0,1-1.82,4.32,5.25,5.25,0,0,1-.65.55A646.6,646.6,0,0,1,351,125.73h.2a7.06,7.06,0,0,1,3.33.79C368.43,115,380.39,102.92,389.09,91.49Z"/><path class="cls-2" d="M362.75,42.44A239.09,239.09,0,0,0,321,31.3c2.1,5.07,4.26,10.6,6.57,16.84A7.51,7.51,0,0,1,332,50C343.29,46.76,353.62,44.21,362.75,42.44Z"/><path class="cls-2" d="M266,25.08a7.75,7.75,0,0,1,1.43-1,64.77,64.77,0,0,1,7-14.9A91.86,91.86,0,0,0,247.86,29.7a87,87,0,0,1,17.79-4.31Z"/><path class="cls-2" d="M315.91,180a105.23,105.23,0,0,0,11.3-.73c-1.13-.14-3.21-.41-4.37-.62-9.11-1.65-19-5.2-29.37-10.56a70.69,70.69,0,0,1-12.05,2.81,1.32,1.32,0,0,1-.69,1.4c.25.27,1,1.08,1.29,1.34A89.66,89.66,0,0,0,315.91,180Z"/><path class="cls-2" d="M338.45,177.06a90.1,90.1,0,0,0,14.19-5c.52-1.73.56-4.68.12-9.44A198.53,198.53,0,0,0,349.21,141a7.47,7.47,0,0,1-4.54-.73c-16.28,11.94-32.38,21-46.75,26.27a103.36,103.36,0,0,0,27,9.54A54.08,54.08,0,0,0,338.45,177.06Z"/><path class="cls-2" d="M271.08,23.31a2.48,2.48,0,0,1,.83.37,2.19,2.19,0,0,1,.81,1c3.6-.26,7.37-.39,11.23-.39a213.88,213.88,0,0,1,29.67,2.21c-4.22-10.1-7.78-17.43-10.87-22.39A31.32,31.32,0,0,0,300.26.62a93.15,93.15,0,0,0-20.9,6.21C276.22,10.57,273.58,15.93,271.08,23.31Z"/><path class="cls-2" d="M404.13,72.46c-1.83,6.42-5.8,13.67-11.93,22-8.6,11.74-20.6,24.11-34.72,35.81a7.16,7.16,0,0,1,0,3.54c6.31,3,11.93,5.37,16.72,7.18a118,118,0,0,0,12.67,4,79.67,79.67,0,0,0,5.49-7.88,91.6,91.6,0,0,0,8.56-18,94.47,94.47,0,0,0,4.78-26.24A90.76,90.76,0,0,0,404.13,72.46Z"/><path class="cls-2" d="M377.49,45c9.59,4.63,18,9.75,23.17,14.79A72.45,72.45,0,0,0,398,53a95.56,95.56,0,0,0-4.39-8.66A100.07,100.07,0,0,0,377.49,45Z"/><path class="cls-2" d="M244.73,33.43a92.65,92.65,0,0,0-12.44,20.74,59.59,59.59,0,0,0,8.86,8.73c3.95,3.32,8.85,7.09,14.58,11.22a7.57,7.57,0,0,1,3.37-2.3,202.59,202.59,0,0,1,6.21-40.93,2.34,2.34,0,0,1-.5-.31,2.25,2.25,0,0,1-.82-1.75,84.15,84.15,0,0,0-10.59,2.05A70.2,70.2,0,0,0,244.73,33.43Z"/><path class="cls-2" d="M225.08,89.14c.42,1.64,1.08,3.77,1.71,5.49h0a1.77,1.77,0,0,1,1.46.92,77.09,77.09,0,0,1,8.76-6.28c4.52-2.85,10-5.91,16.37-9.1a10.51,10.51,0,0,1,.44-2.53c-6-4.42-11.1-8.44-15.1-12-3.33-2.95-6.71-6.33-7.83-8.08A89.66,89.66,0,0,0,225.08,89.14Z"/><path class="cls-2" d="M278,167.82a63,63,0,0,0,10.58-2.37,165.29,165.29,0,0,1-17-11.11l-.27,0a67.84,67.84,0,0,0,5.81,13C277.41,167.55,277.7,167.68,278,167.82Z"/><path class="cls-2" d="M270.09,167.89c.38,0,1.6.13,2,.15a1.34,1.34,0,0,1,1-1.39l.16,0a74,74,0,0,1-5.63-12.93,10.15,10.15,0,0,1-2.38-1.56,7.2,7.2,0,0,1-2.71-5,160.68,160.68,0,0,1-21.22-21.71A111.84,111.84,0,0,1,228,104.79a2.06,2.06,0,0,1-1.8-.8,90.61,90.61,0,0,0,43.92,63.91Z"/></svg>