<svg id="Layer_1" data-name="Layer 1" xmlns="http://www.w3.org/2000/svg" viewBox="0 0 758.6 166.05"><defs><style>.cls-1{fill:#fff;}</style></defs><title>Artboard 1</title><path class="cls-1" d="M282.37,90.64a50.92,50.92,0,0,1-2.91,17.64,39.09,39.09,0,0,1-8.19,13.52,36.15,36.15,0,0,1-12.66,8.66,44.85,44.85,0,0,1-32.53,0,36.19,36.19,0,0,1-12.63-8.66,39,39,0,0,1-8.19-13.52,50.89,50.89,0,0,1-2.91-17.64,50.73,50.73,0,0,1,2.91-17.59,39,39,0,0,1,8.19-13.52,36.52,36.52,0,0,1,12.63-8.69,41.62,41.62,0,0,1,16.25-3.08,42.18,42.18,0,0,1,16.28,3.05,36,36,0,0,1,12.66,8.69,39.42,39.42,0,0,1,8.19,13.55A50.75,50.75,0,0,1,282.37,90.64Zm-6.29,0a47.89,47.89,0,0,0-2.43-15.78A33.76,33.76,0,0,0,266.78,63a29.68,29.68,0,0,0-10.68-7.44,37.82,37.82,0,0,0-27.46,0A30,30,0,0,0,217.94,63,33.84,33.84,0,0,0,211,74.87a47.35,47.35,0,0,0-2.46,15.78,47.28,47.28,0,0,0,2.46,15.8,33.85,33.85,0,0,0,6.94,11.83,29.6,29.6,0,0,0,10.71,7.41,38.24,38.24,0,0,0,27.46,0,29.31,29.31,0,0,0,10.68-7.41,33.77,33.77,0,0,0,6.88-11.83A47.82,47.82,0,0,0,276.09,90.64Z"/><path class="cls-1" d="M303.13,84.24a31.29,31.29,0,0,1,9.16-8.48,22.46,22.46,0,0,1,11.77-3.14q10.85,0,16.93,7.53t6.08,22.6a41.58,41.58,0,0,1-1.69,12.07,28.65,28.65,0,0,1-5,9.73,23.64,23.64,0,0,1-8.07,6.49,24.4,24.4,0,0,1-11,2.37A23,23,0,0,1,311,131.21a21.42,21.42,0,0,1-7.59-6.46v28.76h-5.69V73.62h3.14a1.57,1.57,0,0,1,1.72,1.48Zm.24,35.53a25,25,0,0,0,3.59,4.3,18.22,18.22,0,0,0,3.94,2.85,16.3,16.3,0,0,0,4.42,1.57,24.94,24.94,0,0,0,5,.48,20.7,20.7,0,0,0,9.13-1.9,18,18,0,0,0,6.55-5.37,24.18,24.18,0,0,0,4-8.3,39.92,39.92,0,0,0,1.33-10.65q0-13.17-4.86-19.36t-13.94-6.2a19.33,19.33,0,0,0-10.62,3,30.09,30.09,0,0,0-8.48,8.42Z"/><path class="cls-1" d="M365.11,100.78v1.13a40,40,0,0,0,1.54,11.68A23.9,23.9,0,0,0,371,122a18.08,18.08,0,0,0,6.88,5.13,22.74,22.74,0,0,0,9,1.72,27,27,0,0,0,7.71-1,28.68,28.68,0,0,0,5.49-2.2,29.89,29.89,0,0,0,3.53-2.19,4,4,0,0,1,1.9-1,1.37,1.37,0,0,1,1.19.59l1.54,1.9a16.06,16.06,0,0,1-3.77,3.32A26.92,26.92,0,0,1,399.3,131a38,38,0,0,1-6.17,1.75,34,34,0,0,1-6.61.65,28,28,0,0,1-11-2.11,23.34,23.34,0,0,1-8.54-6.14,27.91,27.91,0,0,1-5.49-9.87,42.62,42.62,0,0,1-1.93-13.37,36.44,36.44,0,0,1,1.81-11.72,26.81,26.81,0,0,1,5.22-9.25,23.76,23.76,0,0,1,8.36-6.08,27.45,27.45,0,0,1,11.24-2.2,24.56,24.56,0,0,1,9.25,1.72,21,21,0,0,1,7.41,5,23.54,23.54,0,0,1,5,8.1,31.15,31.15,0,0,1,1.81,11,3.15,3.15,0,0,1-.36,1.78,1.39,1.39,0,0,1-1.19.47Zm39.38-3.62a25.41,25.41,0,0,0-1.33-8.51,18.12,18.12,0,0,0-3.77-6.38,16.45,16.45,0,0,0-5.78-4,19,19,0,0,0-7.38-1.39A22.22,22.22,0,0,0,378,78.31a17.94,17.94,0,0,0-6.26,4.09,20.48,20.48,0,0,0-4.24,6.41,29.84,29.84,0,0,0-2.13,8.36Z"/><path class="cls-1" d="M430.35,83.94a33.43,33.43,0,0,1,9.46-8.18,23.56,23.56,0,0,1,12-3.08,22.2,22.2,0,0,1,8.57,1.54,15.77,15.77,0,0,1,6.14,4.45,19.67,19.67,0,0,1,3.68,7,31.79,31.79,0,0,1,1.25,9.25v37.72h-5.69V94.91q0-8.31-3.79-13t-11.57-4.71a21,21,0,0,0-10.76,2.93,30.42,30.42,0,0,0-8.93,8.16v44.36h-5.69v-59h3.14a1.57,1.57,0,0,1,1.72,1.48Z"/><path class="cls-1" d="M489.24,132.63V48.42H505.6v69.86h42.94v14.35Z"/><path class="cls-1" d="M627.78,132.63V76.88l-21.7,41.52h-8.9L575.47,76.88v55.75H559.1V48.42h17.55l24.91,47.92,25.15-47.92h17.44v84.22Z"/><path class="cls-1" d="M661.7,132.63V48.53h16.37v84.1Z"/><path class="cls-1" d="M745.91,70.48a20.36,20.36,0,0,0-3-2.26,37.09,37.09,0,0,0-5.34-2.79,46.45,46.45,0,0,0-6.82-2.31,29.82,29.82,0,0,0-7.47-.95q-6.76,0-10.08,2.49a8.24,8.24,0,0,0-3.32,7A7.2,7.2,0,0,0,711.1,76a10.73,10.73,0,0,0,3.62,3,30.4,30.4,0,0,0,6,2.37q3.62,1.07,8.36,2.25,6.17,1.66,11.21,3.56a30.41,30.41,0,0,1,8.54,4.75,19.58,19.58,0,0,1,5.4,6.82,22.67,22.67,0,0,1,1.9,9.79,24.38,24.38,0,0,1-2.55,11.57,21.62,21.62,0,0,1-6.82,7.77,29.14,29.14,0,0,1-10,4.33,50.84,50.84,0,0,1-11.86,1.36,63.37,63.37,0,0,1-18.74-2.85,57.78,57.78,0,0,1-16.61-8.07l7.24-14.12a22.79,22.79,0,0,0,3.85,2.79,58.32,58.32,0,0,0,6.58,3.44,51.3,51.3,0,0,0,8.42,2.91,38,38,0,0,0,9.49,1.19q13.52,0,13.52-8.66a7.29,7.29,0,0,0-1.54-4.75,13.14,13.14,0,0,0-4.39-3.32,42.28,42.28,0,0,0-6.88-2.61q-4-1.18-9-2.49a76.75,76.75,0,0,1-10.5-3.62,28.53,28.53,0,0,1-7.41-4.57,16.64,16.64,0,0,1-4.45-6.17A21.76,21.76,0,0,1,693,74.27a26.17,26.17,0,0,1,2.37-11.39,23,23,0,0,1,6.58-8.3,29.82,29.82,0,0,1,9.79-5,40.48,40.48,0,0,1,12-1.72,46.48,46.48,0,0,1,16.37,2.79,60.92,60.92,0,0,1,13,6.58Z"/><path class="cls-1" d="M29.15,80a5.74,5.74,0,0,1-.54-.81c-5.09,2.47-9.61,4.86-13.45,7.1a74.26,74.26,0,0,0-8.93,6c0,.38,0,.73,0,1.08,6.15,12.83,17.24,26.44,31.28,38.4l.21-.06C34.11,117.43,32.19,100.3,32.18,82A5.7,5.7,0,0,1,29.15,80Z"/><path class="cls-1" d="M38.52,68.76c.11.13.22.27.33.41A450.26,450.26,0,0,1,87.26,50.8a5.49,5.49,0,0,1,1.67-3.26c.1-.1.22-.2.34-.3C87,40.93,84.77,35.15,82.7,30A181.47,181.47,0,0,0,44.13,28a6.3,6.3,0,0,1-1,1.09,7,7,0,0,1-1.82,1.21A183.9,183.9,0,0,0,35.9,67,5.7,5.7,0,0,1,38.52,68.76Z"/><polygon class="cls-1" points="93.19 46.79 93.19 46.79 93.19 46.78 93.19 46.79"/><path class="cls-1" d="M38.43,79.69l0,0a6.82,6.82,0,0,1-2.92,2.14c0,18.56,1.9,35.91,5.51,50.23a9,9,0,0,1,2.53,1.6c1.67,1.48,2.55,3.25,2.38,4.72a149,149,0,0,0,16.93,10.92,143.65,143.65,0,0,0,22.22-10.57,225,225,0,0,0,21.31-14,6.79,6.79,0,0,1,.74-4.85A585.3,585.3,0,0,1,38.43,79.69Z"/><path class="cls-1" d="M110.27,116.59C105.82,98.12,99.84,77.81,93,57.75A6.72,6.72,0,0,1,89.2,56c-.15-.14-.3-.29-.43-.44a510.53,510.53,0,0,0-48.4,18.22,9.33,9.33,0,0,1-.3,2.58,652,652,0,0,0,69.46,40.73C109.77,116.93,110,116.76,110.27,116.59Z"/><path class="cls-1" d="M144.68,134.85a106,106,0,0,1-10.85-3.08c-4.29-1.53-9.33-3.61-15-6.19a9.12,9.12,0,0,1-.73.8,9.22,9.22,0,0,1-.9.76A160.82,160.82,0,0,1,120,146.62a38.32,38.32,0,0,1-.11,8.08A80.3,80.3,0,0,0,144.68,134.85Z"/><path class="cls-1" d="M73.41,2.94c.56.67,1.13,1.42,1.72,2.29,3.24,4.77,6.93,12,11.28,22.18A210.58,210.58,0,0,1,127,38.26a2.91,2.91,0,0,1,.3-.4,3.24,3.24,0,0,1,2.44-1,6.62,6.62,0,0,1,4.54,2.24l.14.16a91.38,91.38,0,0,1,14.79-1.06c.25,0,.65.1.79.1C134.86,15.87,110.31,2.37,82.91,2.37A88.38,88.38,0,0,0,73.41,2.94Z"/><path class="cls-1" d="M148.68,84.62C155,76.38,159,69,160.3,63.13a6.05,6.05,0,0,1-.44-1.73,43.61,43.61,0,0,0-8.65-7.63,97.9,97.9,0,0,0-14.88-8.34,3.26,3.26,0,0,1-.52,1c-1.48,1.89-4.8,1.43-7.13-1-.17-.18-.33-.37-.48-.55-8.38,1.72-17.95,4.17-28.45,7.29A5.5,5.5,0,0,1,98.13,56a4.69,4.69,0,0,1-.58.5,577.33,577.33,0,0,1,17.09,58.65h.18a6.3,6.3,0,0,1,3,.71C130.23,105.63,140.91,94.83,148.68,84.62Z"/><path class="cls-1" d="M125.16,40.83a213.47,213.47,0,0,0-37.29-9.94c1.88,4.52,3.8,9.47,5.87,15a6.7,6.7,0,0,1,4,1.69C107.79,44.69,117,42.41,125.16,40.83Z"/><path class="cls-1" d="M38.75,25.33a6.92,6.92,0,0,1,1.27-.9,57.83,57.83,0,0,1,6.26-13.3A82,82,0,0,0,22.57,29.46a77.67,77.67,0,0,1,15.88-3.85Z"/><path class="cls-1" d="M83.34,163.68A94,94,0,0,0,93.43,163c-1-.13-2.87-.37-3.9-.56A94.72,94.72,0,0,1,63.31,153a63.12,63.12,0,0,1-10.76,2.51,1.18,1.18,0,0,1-.62,1.25c.23.24.92,1,1.15,1.19A80.06,80.06,0,0,0,83.34,163.68Z"/><path class="cls-1" d="M103.46,161a80.45,80.45,0,0,0,12.67-4.49c.47-1.54.5-4.18.11-8.43a177.26,177.26,0,0,0-3.17-19.23,6.67,6.67,0,0,1-4.06-.65C94.48,138.88,80.1,147,67.27,151.68a92.28,92.28,0,0,0,24.08,8.52A48.28,48.28,0,0,0,103.46,161Z"/><path class="cls-1" d="M43.31,23.75a2.22,2.22,0,0,1,.74.33,2,2,0,0,1,.72.92c3.21-.23,6.58-.35,10-.35a191,191,0,0,1,26.49,2c-3.77-9-6.95-15.56-9.7-20a28,28,0,0,0-2.22-3.14A83.17,83.17,0,0,0,50.7,9C47.9,12.38,45.55,17.16,43.31,23.75Z"/><path class="cls-1" d="M162.11,67.64c-1.63,5.74-5.18,12.2-10.65,19.67-7.68,10.48-18.39,21.53-31,32a6.39,6.39,0,0,1,0,3.16c5.63,2.64,10.65,4.79,14.93,6.41a105.36,105.36,0,0,0,11.31,3.54,71.14,71.14,0,0,0,4.9-7,81.79,81.79,0,0,0,7.65-16.11,84.34,84.34,0,0,0,4.27-23.43A81,81,0,0,0,162.11,67.64Z"/><path class="cls-1" d="M138.32,43.09c8.57,4.13,16.06,8.71,20.68,13.21a64.68,64.68,0,0,0-2.41-6.06,85.33,85.33,0,0,0-3.92-7.73A89.35,89.35,0,0,0,138.32,43.09Z"/><path class="cls-1" d="M19.78,32.79A82.72,82.72,0,0,0,8.68,51.31a53.21,53.21,0,0,0,7.91,7.8c3.52,3,7.9,6.33,13,10a6.76,6.76,0,0,1,3-2.05,180.89,180.89,0,0,1,5.55-36.55,2.09,2.09,0,0,1-.44-.28A2,2,0,0,1,37,28.68a75.14,75.14,0,0,0-9.46,1.83A62.68,62.68,0,0,0,19.78,32.79Z"/><path class="cls-1" d="M2.24,82.53c.37,1.46,1,3.37,1.52,4.9h0a1.58,1.58,0,0,1,1.3.83,68.83,68.83,0,0,1,7.83-5.61c4-2.55,8.95-5.28,14.61-8.12a9.38,9.38,0,0,1,.39-2.26C22.55,68.32,18,64.73,14.45,61.59a48.56,48.56,0,0,1-7-7.22A80.06,80.06,0,0,0,2.24,82.53Z"/><path class="cls-1" d="M49.47,152.78a56.25,56.25,0,0,0,9.44-2.11,147.58,147.58,0,0,1-15.14-9.92l-.24,0a60.57,60.57,0,0,0,5.19,11.64Z"/><path class="cls-1" d="M42.43,152.84c.34,0,1.43.11,1.79.14a1.19,1.19,0,0,1,.9-1.24l.14,0a66.05,66.05,0,0,1-5-11.54,9.06,9.06,0,0,1-2.12-1.39,6.43,6.43,0,0,1-2.42-4.42A143.47,143.47,0,0,1,16.74,115,99.86,99.86,0,0,1,4.81,96.49a1.84,1.84,0,0,1-1.6-.72,80.9,80.9,0,0,0,39.22,57.06Z"/></svg>