<svg id="Layer_1" data-name="Layer 1" xmlns="http://www.w3.org/2000/svg" viewBox="0 0 753.89 161.31"><defs><style>.cls-1{fill:#58595b;}.cls-2{fill:#4db9ea;}</style></defs><title>Artboard 1</title><path class="cls-1" d="M280.14,88.27a50.92,50.92,0,0,1-2.91,17.64,39.09,39.09,0,0,1-8.19,13.52,36.15,36.15,0,0,1-12.66,8.66,44.85,44.85,0,0,1-32.53,0,36.19,36.19,0,0,1-12.63-8.66A39,39,0,0,1,203,105.92a50.89,50.89,0,0,1-2.91-17.64A50.73,50.73,0,0,1,203,70.68a39,39,0,0,1,8.19-13.52,36.52,36.52,0,0,1,12.63-8.69,41.62,41.62,0,0,1,16.25-3.08,42.18,42.18,0,0,1,16.28,3.05,36,36,0,0,1,12.66,8.69,39.42,39.42,0,0,1,8.19,13.55A50.75,50.75,0,0,1,280.14,88.27Zm-6.29,0a47.89,47.89,0,0,0-2.43-15.78,33.76,33.76,0,0,0-6.88-11.86,29.68,29.68,0,0,0-10.68-7.44,37.82,37.82,0,0,0-27.46,0,30,30,0,0,0-10.71,7.44,33.84,33.84,0,0,0-6.94,11.86,47.35,47.35,0,0,0-2.46,15.78,47.28,47.28,0,0,0,2.46,15.8,33.85,33.85,0,0,0,6.94,11.83,29.6,29.6,0,0,0,10.71,7.41,38.24,38.24,0,0,0,27.46,0,29.31,29.31,0,0,0,10.68-7.41,33.77,33.77,0,0,0,6.88-11.83A47.82,47.82,0,0,0,273.86,88.27Z"/><path class="cls-1" d="M300.9,81.87a31.29,31.29,0,0,1,9.16-8.48,22.46,22.46,0,0,1,11.77-3.14q10.85,0,16.93,7.53t6.08,22.6a41.58,41.58,0,0,1-1.69,12.07,28.65,28.65,0,0,1-5,9.73,23.64,23.64,0,0,1-8.07,6.49,24.4,24.4,0,0,1-11,2.37,23,23,0,0,1-10.38-2.19,21.42,21.42,0,0,1-7.59-6.46v28.76h-5.69V71.25h3.14a1.57,1.57,0,0,1,1.72,1.48Zm.24,35.53a25,25,0,0,0,3.59,4.3,18.22,18.22,0,0,0,3.94,2.85,16.3,16.3,0,0,0,4.42,1.57,24.94,24.94,0,0,0,5,.48,20.7,20.7,0,0,0,9.13-1.9,18,18,0,0,0,6.55-5.37,24.18,24.18,0,0,0,4-8.3A39.92,39.92,0,0,0,339,100.37Q339,87.2,334.17,81t-13.94-6.2a19.33,19.33,0,0,0-10.62,3,30.09,30.09,0,0,0-8.48,8.42Z"/><path class="cls-1" d="M362.88,98.41v1.13a40,40,0,0,0,1.54,11.68,23.9,23.9,0,0,0,4.39,8.45,18.08,18.08,0,0,0,6.88,5.13,22.74,22.74,0,0,0,9,1.72,27,27,0,0,0,7.71-1,28.68,28.68,0,0,0,5.49-2.2,29.89,29.89,0,0,0,3.53-2.19,4,4,0,0,1,1.9-1,1.37,1.37,0,0,1,1.19.59l1.54,1.9a16.06,16.06,0,0,1-3.77,3.32,26.92,26.92,0,0,1-5.22,2.64,38,38,0,0,1-6.17,1.75,34,34,0,0,1-6.61.65,28,28,0,0,1-11-2.11,23.34,23.34,0,0,1-8.54-6.14,27.91,27.91,0,0,1-5.49-9.87,42.62,42.62,0,0,1-1.93-13.37,36.44,36.44,0,0,1,1.81-11.72,26.81,26.81,0,0,1,5.22-9.25,23.76,23.76,0,0,1,8.36-6.08,27.45,27.45,0,0,1,11.24-2.2A24.56,24.56,0,0,1,393.18,72a21,21,0,0,1,7.41,5,23.54,23.54,0,0,1,5,8.1,31.15,31.15,0,0,1,1.81,11,3.15,3.15,0,0,1-.36,1.78,1.39,1.39,0,0,1-1.19.47Zm39.38-3.62a25.41,25.41,0,0,0-1.33-8.51,18.12,18.12,0,0,0-3.77-6.38,16.45,16.45,0,0,0-5.78-4A19,19,0,0,0,384,74.51a22.22,22.22,0,0,0-8.18,1.42A17.94,17.94,0,0,0,369.55,80a20.48,20.48,0,0,0-4.24,6.41,29.84,29.84,0,0,0-2.13,8.36Z"/><path class="cls-1" d="M428.11,81.57a33.43,33.43,0,0,1,9.46-8.18,23.56,23.56,0,0,1,12-3.08,22.2,22.2,0,0,1,8.57,1.54,15.77,15.77,0,0,1,6.14,4.45,19.67,19.67,0,0,1,3.68,7,31.79,31.79,0,0,1,1.25,9.25v37.72h-5.69V92.54q0-8.31-3.79-13T448.1,74.81a21,21,0,0,0-10.76,2.93,30.42,30.42,0,0,0-8.93,8.16v44.36h-5.69v-59h3.14a1.57,1.57,0,0,1,1.72,1.48Z"/><path class="cls-1" d="M487,130.26V46h16.37v69.86h42.94v14.35Z"/><path class="cls-1" d="M625.55,130.26V74.51L603.84,116h-8.9L573.24,74.51v55.75H556.87V46h17.55L599.33,94,624.48,46h17.44v84.22Z"/><path class="cls-1" d="M659.47,130.26V46.16h16.37v84.1Z"/><path class="cls-1" d="M743.68,68.11a20.36,20.36,0,0,0-3-2.26,37.09,37.09,0,0,0-5.34-2.79,46.45,46.45,0,0,0-6.82-2.31A29.82,29.82,0,0,0,721,59.8q-6.76,0-10.08,2.49a8.24,8.24,0,0,0-3.32,7,7.2,7.2,0,0,0,1.25,4.33,10.73,10.73,0,0,0,3.62,3,30.4,30.4,0,0,0,6,2.37q3.62,1.07,8.36,2.25Q733,82.94,738,84.83a30.41,30.41,0,0,1,8.54,4.75A19.58,19.58,0,0,1,752,96.4a22.67,22.67,0,0,1,1.9,9.79,24.38,24.38,0,0,1-2.55,11.57,21.62,21.62,0,0,1-6.82,7.77,29.14,29.14,0,0,1-10,4.33,50.84,50.84,0,0,1-11.86,1.36,63.37,63.37,0,0,1-18.74-2.85,57.78,57.78,0,0,1-16.61-8.07l7.24-14.12a22.79,22.79,0,0,0,3.85,2.79,58.32,58.32,0,0,0,6.58,3.44,51.3,51.3,0,0,0,8.42,2.91,38,38,0,0,0,9.49,1.19q13.52,0,13.52-8.66a7.29,7.29,0,0,0-1.54-4.75,13.14,13.14,0,0,0-4.39-3.32,42.28,42.28,0,0,0-6.88-2.61q-4-1.18-9-2.49a76.75,76.75,0,0,1-10.5-3.62,28.53,28.53,0,0,1-7.41-4.57,16.64,16.64,0,0,1-4.45-6.17,21.76,21.76,0,0,1-1.48-8.42,26.17,26.17,0,0,1,2.37-11.39,23,23,0,0,1,6.58-8.3,29.82,29.82,0,0,1,9.79-5,40.48,40.48,0,0,1,12-1.72,46.48,46.48,0,0,1,16.37,2.79,60.92,60.92,0,0,1,13,6.58Z"/><path class="cls-2" d="M26.92,77.65a5.74,5.74,0,0,1-.54-.81c-5.09,2.47-9.61,4.86-13.45,7.1a74.26,74.26,0,0,0-8.93,6c0,.38,0,.73,0,1.08,6.15,12.83,17.24,26.44,31.28,38.4l.21-.06C31.88,115.05,30,97.93,29.95,79.68A5.7,5.7,0,0,1,26.92,77.65Z"/><path class="cls-2" d="M36.29,66.38c.11.13.22.27.33.41A450.26,450.26,0,0,1,85,48.42a5.49,5.49,0,0,1,1.67-3.26c.1-.1.22-.2.34-.3-2.28-6.31-4.49-12.09-6.57-17.2A181.47,181.47,0,0,0,41.9,25.62a6.3,6.3,0,0,1-1,1.09,7,7,0,0,1-1.82,1.21,183.9,183.9,0,0,0-5.44,36.74A5.7,5.7,0,0,1,36.29,66.38Z"/><polygon class="cls-2" points="90.96 44.42 90.96 44.42 90.96 44.41 90.96 44.42"/><path class="cls-2" d="M36.2,77.32l0,0a6.82,6.82,0,0,1-2.92,2.14c0,18.56,1.9,35.91,5.51,50.23a9,9,0,0,1,2.53,1.6c1.67,1.48,2.55,3.25,2.38,4.72A149,149,0,0,0,60.6,147a143.65,143.65,0,0,0,22.22-10.57,225,225,0,0,0,21.31-14,6.79,6.79,0,0,1,.74-4.85A585.3,585.3,0,0,1,36.2,77.32Z"/><path class="cls-2" d="M108,114.22c-4.45-18.46-10.43-38.78-17.3-58.84A6.72,6.72,0,0,1,87,53.66c-.15-.14-.3-.29-.43-.44a510.53,510.53,0,0,0-48.4,18.22,9.33,9.33,0,0,1-.3,2.58,652,652,0,0,0,69.46,40.73C107.54,114.56,107.78,114.38,108,114.22Z"/><path class="cls-2" d="M142.45,132.48a106,106,0,0,1-10.85-3.08c-4.29-1.53-9.33-3.61-15-6.19a9.12,9.12,0,0,1-.73.8,9.22,9.22,0,0,1-.9.76,160.82,160.82,0,0,1,2.82,19.48,38.32,38.32,0,0,1-.11,8.08A80.3,80.3,0,0,0,142.45,132.48Z"/><path class="cls-2" d="M71.18.56c.56.67,1.13,1.42,1.72,2.29,3.24,4.77,6.93,12,11.28,22.18a210.58,210.58,0,0,1,40.63,10.85,2.91,2.91,0,0,1,.3-.4,3.24,3.24,0,0,1,2.44-1,6.62,6.62,0,0,1,4.54,2.24l.14.16A91.38,91.38,0,0,1,147,35.82c.25,0,.65.1.79.1C132.63,13.5,108.08,0,80.68,0A88.38,88.38,0,0,0,71.18.56Z"/><path class="cls-2" d="M146.45,82.25c6.28-8.24,10.29-15.67,11.63-21.49a6.05,6.05,0,0,1-.44-1.73A43.61,43.61,0,0,0,149,51.39a97.9,97.9,0,0,0-14.88-8.34,3.26,3.26,0,0,1-.52,1c-1.48,1.89-4.8,1.43-7.13-1-.17-.18-.33-.37-.48-.55-8.38,1.72-17.95,4.17-28.45,7.29a5.5,5.5,0,0,1-1.62,3.86,4.69,4.69,0,0,1-.58.5,577.33,577.33,0,0,1,17.09,58.65h.18a6.3,6.3,0,0,1,3,.71C128,103.26,138.68,92.45,146.45,82.25Z"/><path class="cls-2" d="M122.93,38.45a213.47,213.47,0,0,0-37.29-9.94c1.88,4.52,3.8,9.47,5.87,15a6.7,6.7,0,0,1,4,1.69C105.55,42.31,114.77,40,122.93,38.45Z"/><path class="cls-2" d="M36.52,23a6.92,6.92,0,0,1,1.27-.9,57.83,57.83,0,0,1,6.26-13.3A82,82,0,0,0,20.34,27.08a77.67,77.67,0,0,1,15.88-3.85Z"/><path class="cls-2" d="M81.1,161.31a94,94,0,0,0,10.09-.66c-1-.13-2.87-.37-3.9-.56a94.72,94.72,0,0,1-26.22-9.43,63.12,63.12,0,0,1-10.76,2.51,1.18,1.18,0,0,1-.62,1.25c.23.24.92,1,1.15,1.19A80.06,80.06,0,0,0,81.1,161.31Z"/><path class="cls-2" d="M101.23,158.66a80.45,80.45,0,0,0,12.67-4.49c.47-1.54.5-4.18.11-8.43a177.26,177.26,0,0,0-3.17-19.23,6.67,6.67,0,0,1-4.06-.65C92.24,136.51,77.87,144.59,65,149.31a92.28,92.28,0,0,0,24.08,8.52A48.28,48.28,0,0,0,101.23,158.66Z"/><path class="cls-2" d="M41.08,21.38a2.22,2.22,0,0,1,.74.33,2,2,0,0,1,.72.92c3.21-.23,6.58-.35,10-.35a191,191,0,0,1,26.49,2c-3.77-9-6.95-15.56-9.7-20a28,28,0,0,0-2.22-3.14A83.17,83.17,0,0,0,48.47,6.67C45.67,10,43.31,14.78,41.08,21.38Z"/><path class="cls-2" d="M159.88,65.26c-1.63,5.74-5.18,12.2-10.65,19.67-7.68,10.48-18.39,21.53-31,32a6.39,6.39,0,0,1,0,3.16c5.63,2.64,10.65,4.79,14.93,6.41A105.36,105.36,0,0,0,144.44,130a71.14,71.14,0,0,0,4.9-7A81.79,81.79,0,0,0,157,106.87a84.34,84.34,0,0,0,4.27-23.43A81,81,0,0,0,159.88,65.26Z"/><path class="cls-2" d="M136.09,40.72c8.57,4.13,16.06,8.71,20.68,13.21a64.68,64.68,0,0,0-2.41-6.06,85.33,85.33,0,0,0-3.92-7.73A89.35,89.35,0,0,0,136.09,40.72Z"/><path class="cls-2" d="M17.55,30.42A82.72,82.72,0,0,0,6.45,48.94a53.21,53.21,0,0,0,7.91,7.8c3.52,3,7.9,6.33,13,10a6.76,6.76,0,0,1,3-2.05,180.89,180.89,0,0,1,5.55-36.55,2.09,2.09,0,0,1-.44-.28,2,2,0,0,1-.73-1.56,75.14,75.14,0,0,0-9.46,1.83A62.68,62.68,0,0,0,17.55,30.42Z"/><path class="cls-2" d="M0,80.16c.37,1.46,1,3.37,1.52,4.9h0a1.58,1.58,0,0,1,1.3.83,68.83,68.83,0,0,1,7.83-5.61c4-2.55,8.95-5.28,14.61-8.12a9.38,9.38,0,0,1,.39-2.26c-5.38-3.94-9.91-7.53-13.48-10.68a48.56,48.56,0,0,1-7-7.22A80.06,80.06,0,0,0,0,80.16Z"/><path class="cls-2" d="M47.23,150.4a56.25,56.25,0,0,0,9.44-2.11,147.58,147.58,0,0,1-15.14-9.92l-.24,0a60.57,60.57,0,0,0,5.19,11.64Z"/><path class="cls-2" d="M40.2,150.47c.34,0,1.43.11,1.79.14a1.19,1.19,0,0,1,.9-1.24l.14,0a66.05,66.05,0,0,1-5-11.54,9.06,9.06,0,0,1-2.12-1.39A6.43,6.43,0,0,1,33.46,132a143.47,143.47,0,0,1-18.95-19.39A99.86,99.86,0,0,1,2.58,94.12,1.84,1.84,0,0,1,1,93.41,80.9,80.9,0,0,0,40.2,150.47Z"/></svg>